<svg width="189" height="250" viewBox="0 0 189 250" fill="none" xmlns="http://www.w3.org/2000/svg">
<mask id="mask0_183_557" style="mask-type:alpha" maskUnits="userSpaceOnUse" x="0" y="62" width="129" height="126">
<rect y="62" width="129" height="126" fill="#D9D9D9"/>
</mask>
<g mask="url(#mask0_183_557)">
<path d="M19.8802 75.5768C29.9422 77.4028 29.6445 89.2895 29.6445 89.2895L31.3841 80.5239C31.3841 80.5239 18.9807 57.5822 29.418 63.3307C39.8553 69.0792 30.7845 91.9168 30.7845 91.9168C30.7845 91.9168 41.1098 70.8124 42.8596 78.1259C44.6093 85.4394 30.1758 95.7025 30.1758 95.7025C28.9977 102.984 27.4504 110.041 25.6309 116.711C31.0176 109.07 43.7452 92.3739 43.1817 100.863C42.5805 110.11 24.382 121.266 24.382 121.266C22.3904 128.321 20.1909 134.929 17.9501 140.976C25.9659 132.663 47.01 111.651 45.2252 121.891C43.274 133.009 24.2285 143.426 15.3777 147.718C14.7332 149.376 14.0608 151.014 13.3745 152.642C8.7722 163.609 4.64716 171.503 2.87204 174.786C9.01921 173.081 15.0588 171.009 20.9585 168.582C24.4412 151.987 38.4353 134.125 39.9819 145.368C41.0269 152.746 36.2616 159.35 31.998 163.64C40.844 159.305 49.4072 154.415 57.6364 149C59.7002 140.256 66.4535 113.686 72.4379 121.869C77.1617 128.356 70.1352 138.211 64.9254 144.048C72.7251 138.594 79.6503 133.146 85.4901 128.231C86.1089 124.431 90.5852 98.575 95.3241 106.071C98.3135 110.755 95.5603 117.218 92.7576 121.926C101.107 114.533 105.875 109.396 105.875 109.396C105.875 109.396 115.022 79.6284 122.75 86.0122C130.478 92.396 109.661 109.623 109.661 109.623C104.677 115.029 99.6934 120.052 94.7553 124.747C106.805 118.581 131.491 107.203 128.06 118.166C124.11 130.729 96.891 129.643 89.9806 129.157C82.1239 136.307 73.875 143.013 65.2724 149.245C78.6133 146.41 121.911 138.102 113.383 151.48C103.361 167.22 59.2602 153.399 59.2602 153.399C49.5522 160.019 39.3879 165.944 28.8435 171.13C40.8892 169.589 73.8022 166.61 69.3856 180.556C64.0553 197.622 20.2182 175.139 20.2182 175.139C0.0198533 183.917 -13.0468 185.931 -13.0468 185.931C-15.3671 181.114 -9.04599 177.651 -9.04599 177.651C-7.2612 177.325 -5.4702 176.961 -3.69707 176.564C3.66416 165.375 9.78149 153.415 14.5462 140.898C12.4834 138.284 -7.34675 112.806 5.23493 111.759C18.4532 110.682 17.158 133.866 17.1596 133.952C18.8171 129.33 20.3242 124.771 21.6926 120.344C19.1205 113.817 9.06431 87.2404 18.9106 92.6899C25.0863 96.1061 25.6945 102.766 25.0026 108.02L28.481 94.3734C28.481 94.3734 9.80419 73.7408 19.8802 75.5768Z" fill="#F1E5E3"/>
</g>
</svg>
