<svg width="116" height="201" viewBox="0 0 116 201" fill="none" xmlns="http://www.w3.org/2000/svg">
<mask id="mask0_183_553" style="mask-type:alpha" maskUnits="userSpaceOnUse" x="0" y="0" width="116" height="201">
<rect width="116" height="201" fill="#D9D9D9"/>
</mask>
<g mask="url(#mask0_183_553)">
<path d="M5.90172 188.357C8.64271 190.691 9.71098 195.22 7.35054 197.949C5.32959 200.285 1.79248 200.48 -1.2796 200.146C-9.40678 199.263 -17.23 195.877 -23.4317 190.59C-30.3721 196.373 -37.6792 201.714 -45.3859 206.407C-46.9726 207.373 -48.5813 204.973 -46.9916 204.005C-39.3598 199.357 -32.1133 194.085 -25.2351 188.361C-29.0789 183.033 -32.5958 177.973 -34.8173 171.722C-36.0207 168.336 -36.7169 164.534 -35.4006 161.189C-34.0849 157.843 -30.1558 155.351 -26.8173 156.677C-23.9604 157.812 -22.6329 161.078 -21.9553 164.079C-20.2653 171.563 -20.7636 179.521 -23.3245 186.752C-17.3517 181.659 -11.6605 176.232 -6.24599 170.581C-5.25954 169.55 -4.28136 168.51 -3.31161 167.463C-7.28292 161.967 -10.9376 156.798 -13.2217 150.371C-14.4252 146.984 -15.121 143.183 -13.8047 139.838C-12.489 136.492 -8.55987 134 -5.22194 135.326C-2.3648 136.461 -1.03752 139.727 -0.359765 142.728C1.3748 150.411 0.801223 158.593 -1.94115 165.976C5.32041 158.017 12.0916 149.55 18.0037 140.542C13.0676 136.194 8.51008 132.038 4.95505 126.431C3.03066 123.396 1.50995 119.843 2.052 116.289C2.59369 112.736 5.87282 109.433 9.42224 109.986C12.4603 110.459 14.478 113.348 15.8039 116.124C19.0564 122.933 20.3487 130.661 19.5377 138.163C20.4571 136.713 21.3533 135.248 22.2261 133.769C25.5019 128.207 28.4478 122.418 30.7092 116.364C31.9447 113.054 32.8424 109.685 33.5247 106.268C27.595 102.488 22.0946 98.9724 17.4598 93.6702C15.0949 90.9652 13.0499 87.6871 13.0435 84.0925C13.0364 80.4977 15.7733 76.7332 19.3656 76.7366C22.4404 76.7394 24.8755 79.2868 26.6098 81.8275C31.2998 88.6976 33.7991 97.0346 33.6959 105.355C34.3009 102.143 34.7327 98.8912 35.0746 95.6052C36.1606 85.1656 36.4882 74.2914 38.4692 63.8693C32.686 60.1911 27.3216 56.7218 22.7833 51.5441C20.4155 48.8419 18.3658 45.5671 18.3543 41.9721C18.3432 38.3773 21.0751 34.6092 24.6672 34.608C27.742 34.6067 30.1806 37.1509 31.9179 39.6892C36.2463 46.0117 38.7193 53.581 39.0114 61.238C40.3942 54.9584 42.4592 48.8722 45.7543 43.1808C47.9299 39.4227 50.6331 35.9984 53.6314 32.8503C50.2716 27.111 47.2066 21.6921 45.5753 15.1888C44.7009 11.7026 44.3714 7.85152 46.0009 4.64703C47.6304 1.44254 51.7786 -0.662972 54.9753 0.976821C57.7107 2.37996 58.7201 5.75826 59.1079 8.81064C60.0446 16.1821 58.8945 23.8001 55.8784 30.589C57.369 29.1569 58.9115 27.7801 60.5028 26.4612C67.6934 20.5033 75.9475 15.7891 84.8345 12.8963C85.0506 12.8236 85.2808 12.8033 85.5062 12.837C90.6805 10.7134 95.7256 8.9109 101.419 8.25338C104.987 7.84101 108.845 8.01728 111.806 10.0521C114.766 12.0871 116.307 16.4784 114.262 19.4353C112.513 21.9664 109.034 22.526 105.959 22.5124C98.3254 22.4781 90.7229 20.2252 84.2793 16.1377C73.9182 19.7684 63.9383 26.0136 56.2312 34.1939C62.3918 32.0506 68.2121 30.149 74.7913 29.8116C78.3783 29.6276 82.2176 30.049 85.0425 32.2686C87.8673 34.4878 89.1255 38.9686 86.8976 41.7893C84.9902 44.2037 81.4828 44.541 78.4156 44.3318C70.0236 43.7585 61.8426 40.4953 55.3423 35.1574C50.6736 40.3238 46.9049 46.2212 44.4986 52.6963C43.3101 55.8942 42.4046 59.1457 41.6908 62.4338C47.0139 58.8323 52.096 55.5563 58.2834 53.5615C61.7026 52.4586 65.5208 51.8764 68.8218 53.2925C72.1231 54.7087 74.492 58.7132 73.065 62.0127C71.8435 64.8373 68.541 66.067 65.5224 66.6552C57.4519 68.2283 48.9132 67.268 41.3831 63.9729C38.7604 77.1776 39.0329 90.9342 36.8638 104.235C42.0358 100.745 47.0136 97.5873 53.0389 95.6446C56.4582 94.5421 60.2761 93.9598 63.5774 95.376C66.8786 96.7917 69.2475 100.796 67.8206 104.096C66.5995 106.92 63.2968 108.15 60.2782 108.738C52.3436 110.285 43.9552 109.386 36.519 106.224C36.4747 106.463 36.4404 106.704 36.3944 106.942C34.2047 118.397 28.6469 129.153 22.4227 138.973C27.5592 136.527 32.5676 134.407 38.3065 133.43C41.8482 132.827 45.7102 132.796 48.7753 134.67C51.8404 136.543 53.614 140.845 51.7311 143.907C50.119 146.528 46.6751 147.274 43.6039 147.424C35.6195 147.817 27.54 145.776 20.6792 141.676C14.6292 150.897 7.77355 159.589 0.348539 167.753C6.01932 166.073 11.4709 164.68 17.5023 164.624C21.0946 164.591 24.9123 165.173 27.6419 167.509C30.3712 169.845 31.4399 174.375 29.0955 177.1C27.089 179.432 23.5707 179.621 20.5148 179.283C12.4517 178.391 4.68441 175.013 -1.48285 169.743C-3.92079 172.364 -6.41539 174.931 -8.96484 177.443C-12.8174 181.237 -16.7989 184.919 -20.9098 188.453C-15.4303 186.848 -10.1288 185.546 -4.28734 185.485C-0.676014 185.446 3.16153 186.024 5.90172 188.357Z" fill="#744646" fill-opacity="0.1"/>
</g>
</svg>
