<svg width="145" height="128" viewBox="0 0 145 128" fill="none" xmlns="http://www.w3.org/2000/svg">
<g clip-path="url(#clip0_174_164)">
<path d="M111.798 111.562C101.736 109.736 102.034 97.8494 102.034 97.8494L100.294 106.615C100.294 106.615 112.698 129.557 102.26 123.808C91.823 118.06 100.894 95.2221 100.894 95.2221C100.894 95.2221 90.5685 116.327 88.8188 109.013C87.069 101.7 101.503 91.4364 101.503 91.4364C102.681 84.1552 104.228 77.0978 106.047 70.4281C100.661 78.0692 87.9332 94.765 88.4967 86.2759C89.0979 77.0285 107.296 65.873 107.296 65.873C109.288 58.8178 111.487 52.21 113.728 46.1627C105.712 54.4755 84.6683 75.488 86.4531 65.2476C88.4043 54.1295 107.45 43.7126 116.301 39.4205C116.945 37.7625 117.618 36.1246 118.304 34.4969C122.906 23.5296 127.031 15.6362 128.806 12.3526C122.659 14.0582 116.62 16.1301 110.72 18.5572C107.237 35.1517 93.243 53.0141 91.6964 41.771C90.6515 34.3929 95.4167 27.7894 99.6804 23.4991C90.8343 27.834 82.2711 32.7237 74.0419 38.139C71.9782 46.883 65.2249 73.4524 59.2404 65.2698C54.5166 58.7825 61.5431 48.9278 66.753 43.0911C58.9532 48.545 52.0281 53.9932 46.1883 58.9083C45.5695 62.7079 41.0932 88.5639 36.3542 81.0678C33.3649 76.3841 36.1181 69.921 38.9208 65.2134C30.5713 72.606 25.8031 77.7424 25.8031 77.7424C25.8031 77.7424 16.6567 107.51 8.92832 101.127C1.19995 94.7429 22.0176 77.5159 22.0176 77.5159C27.0012 72.1104 31.985 67.0871 36.9231 62.3918C24.873 68.5576 0.186973 79.9359 3.61842 68.973C7.56797 56.4095 34.7873 57.4961 41.6977 57.9819C49.5545 50.8324 57.8033 44.126 66.4059 37.8938C53.065 40.7291 9.76719 49.0371 18.2958 35.6593C28.3169 19.919 72.4181 33.7401 72.4181 33.7401C82.1262 27.1199 92.2905 21.1948 102.835 16.0093C90.7891 17.55 57.8762 20.5286 62.2927 6.58247C67.6231 -10.4834 111.46 12.0003 111.46 12.0003C131.658 3.22213 144.725 1.20804 144.725 1.20804C147.045 6.02457 140.724 9.48833 140.724 9.48833C138.94 9.8139 137.149 10.1775 135.375 10.5752C128.014 21.7643 121.897 33.7239 117.132 46.2412C119.195 48.855 139.025 74.3325 126.443 75.3802C113.225 76.457 114.52 53.2734 114.519 53.1873C112.861 57.8084 111.354 62.3683 109.986 66.7947C112.558 73.3216 122.614 99.8985 112.768 94.4491C106.592 91.0328 105.984 84.3733 106.676 79.1191L103.197 92.7656C103.197 92.7656 121.874 113.398 111.798 111.562Z" fill="#F1E5E3"/>
</g>
<defs>
<clipPath id="clip0_174_164">
<rect width="145" height="128" fill="white"/>
</clipPath>
</defs>
</svg>
