<svg width="99" height="119" viewBox="0 0 99 119" fill="none" xmlns="http://www.w3.org/2000/svg">
<mask id="mask0_52_267" style="mask-type:alpha" maskUnits="userSpaceOnUse" x="0" y="0" width="99" height="119">
<path d="M0 0H95.071L99 118.5L0.5 103.5L0 0Z" fill="#D9D9D9"/>
</mask>
<g mask="url(#mask0_52_267)">
<path d="M94.2147 162.458C91.8613 164.462 90.9441 168.35 92.9707 170.693C94.7059 172.699 97.7428 172.866 100.38 172.58C107.358 171.821 114.075 168.914 119.4 164.375C125.359 169.341 131.633 173.926 138.25 177.955C139.612 178.785 140.993 176.724 139.628 175.893C133.076 171.903 126.854 167.376 120.948 162.462C124.249 157.887 127.268 153.543 129.175 148.176C130.209 145.268 130.806 142.004 129.676 139.132C128.547 136.259 125.173 134.119 122.307 135.258C119.854 136.232 118.714 139.036 118.132 141.614C116.681 148.039 117.109 154.871 119.308 161.08C114.18 156.707 109.293 152.048 104.645 147.196C103.798 146.311 102.958 145.418 102.125 144.519C105.535 139.8 108.673 135.362 110.634 129.844C111.667 126.936 112.264 123.672 111.134 120.8C110.005 117.928 106.631 115.788 103.765 116.926C101.312 117.901 100.173 120.705 99.5907 123.282C98.1014 129.878 98.5939 136.903 100.948 143.242C94.7138 136.409 88.9002 129.139 83.8241 121.405C88.0622 117.672 91.9752 114.104 95.0275 109.289C96.6797 106.683 97.9854 103.633 97.52 100.582C97.0549 97.5308 94.2395 94.6953 91.192 95.1698C88.5836 95.5756 86.8512 98.0567 85.7128 100.44C82.9203 106.286 81.8107 112.921 82.507 119.362C81.7177 118.117 80.9482 116.859 80.1988 115.59C77.3862 110.814 74.8569 105.844 72.9154 100.646C71.8545 97.804 71.0838 94.9117 70.4979 91.9779C75.5891 88.7319 80.3117 85.7137 84.291 81.1613C86.3216 78.8388 88.0773 76.0242 88.0829 72.938C88.0889 69.8515 85.7391 66.6194 82.6548 66.6223C80.0148 66.6247 77.9241 68.8119 76.435 70.9933C72.4082 76.8919 70.2624 84.0499 70.351 91.1938C69.8316 88.4358 69.4608 85.644 69.1673 82.8226C68.2348 73.8593 67.9536 64.5229 66.2527 55.5746C71.2181 52.4166 75.8239 49.4379 79.7204 44.9923C81.7534 42.6723 83.5132 39.8606 83.5231 36.774C83.5326 33.6875 81.187 30.4523 78.1029 30.4513C75.4629 30.4502 73.3692 32.6346 71.8775 34.8139C68.1613 40.2423 66.0379 46.7412 65.7872 53.3154C64.5999 47.9239 62.8269 42.6983 59.9978 37.8118C58.1299 34.5851 55.809 31.6451 53.2347 28.9422C56.1194 24.0145 58.7509 19.3618 60.1515 13.7783C60.9022 10.785 61.1852 7.47855 59.7861 4.72722C58.387 1.97588 54.8255 0.168125 52.0808 1.57603C49.7322 2.78074 48.8656 5.6813 48.5326 8.30204C47.7283 14.631 48.7158 21.1718 51.3054 27.0006C50.0256 25.7711 48.7013 24.5889 47.3349 23.4566C41.1612 18.3412 34.0744 14.2936 26.4442 11.8099C26.2586 11.7475 26.0609 11.7301 25.8674 11.759C21.4248 9.93568 17.0932 8.38812 12.2053 7.82358C9.1416 7.46952 5.82926 7.62087 3.2872 9.36795C0.745542 11.1151 -0.577332 14.8855 1.17788 17.4242C2.68002 19.5974 5.66699 20.0778 8.30726 20.0661C14.861 20.0367 21.3884 18.1025 26.9208 14.5929C35.8167 17.7102 44.3853 23.0723 51.0025 30.0958C45.7131 28.2556 40.7159 26.6229 35.067 26.3332C31.9873 26.1752 28.691 26.537 26.2655 28.4427C23.8402 30.3481 22.7599 34.1952 24.6728 36.6171C26.3104 38.69 29.3219 38.9796 31.9553 38.8C39.1606 38.3078 46.1846 35.506 51.7657 30.923C55.7742 35.3588 59.0099 40.4223 61.076 45.9816C62.0964 48.7273 62.8739 51.519 63.4867 54.3422C58.9164 51.25 54.5529 48.4372 49.2405 46.7245C46.3048 45.7775 43.0266 45.2777 40.1924 46.4935C37.3579 47.7094 35.324 51.1477 36.5493 53.9806C37.598 56.4057 40.4335 57.4616 43.0252 57.9665C49.9545 59.3172 57.2856 58.4927 63.7509 55.6636C66.0027 67.0009 65.7687 78.8122 67.6311 90.2319C63.1904 87.2356 58.9166 84.5244 53.7434 82.8564C50.8076 81.9098 47.5296 81.4099 44.6951 82.6258C41.8608 83.8414 39.8269 87.2796 41.052 90.1129C42.1004 92.5375 44.9361 93.5936 47.5278 94.0986C54.3403 95.4265 61.5425 94.6549 67.9272 91.94C67.9652 92.1451 67.9946 92.3517 68.0341 92.5562C69.9141 102.391 74.686 111.626 80.03 120.058C75.6199 117.957 71.3197 116.137 66.3924 115.298C63.3515 114.781 60.0357 114.754 57.404 116.363C54.7724 117.971 53.2496 121.665 54.8663 124.294C56.2504 126.544 59.2073 127.185 61.8441 127.314C68.6995 127.651 75.6363 125.899 81.5269 122.379C86.7214 130.296 92.6076 137.758 98.9826 144.767C94.1137 143.325 89.4331 142.129 84.2546 142.081C81.1703 142.053 77.8925 142.553 75.5489 144.559C73.2055 146.564 72.288 150.453 74.3008 152.793C76.0236 154.795 79.0444 154.958 81.6681 154.668C88.591 153.902 95.2599 151.001 100.555 146.477C102.648 148.727 104.79 150.931 106.979 153.087C110.287 156.345 113.705 159.507 117.235 162.54C112.53 161.163 107.978 160.045 102.963 159.992C99.8622 159.959 96.5674 160.455 94.2147 162.458Z" fill="#744646" fill-opacity="0.1"/>
</g>
</svg>
