<svg width="83" height="173" viewBox="0 0 83 173" fill="none" xmlns="http://www.w3.org/2000/svg">
<mask id="mask0_183_569" style="mask-type:alpha" maskUnits="userSpaceOnUse" x="0" y="0" width="83" height="173">
<path d="M0 0H83L81.5 165L52 169.5L23 173L0 169V0Z" fill="#D9D9D9"/>
</mask>
<g mask="url(#mask0_183_569)">
<path d="M64.2734 207.863C67.8107 208.531 70.9835 211.934 70.2864 215.475C69.6891 218.505 66.7137 220.428 63.8805 221.661C56.3841 224.922 47.9113 225.86 39.9043 224.342C36.7436 232.806 33.0448 241.066 28.6781 248.962C27.779 250.588 25.1923 249.301 26.0927 247.672C30.4173 239.853 34.097 231.682 37.2334 223.301C31.2537 220.579 25.6912 217.928 20.6633 213.6C17.9395 211.256 15.4503 208.299 14.9351 204.741C14.4195 201.183 16.5964 197.071 20.1529 196.568C23.197 196.137 25.9687 198.316 28.0451 200.587C33.2227 206.249 36.7346 213.407 38.0949 220.956C40.7579 213.573 43.0103 206.038 44.9117 198.446C45.2571 197.062 45.5913 195.674 45.9144 194.284C39.7407 191.479 34.0044 188.801 28.8348 184.352C26.1106 182.007 23.6222 179.051 23.1069 175.493C22.5913 171.935 24.7682 167.823 28.3245 167.32C31.3685 166.889 34.1402 169.068 36.2167 171.338C41.5315 177.151 45.0893 184.541 46.3672 192.312C48.7288 181.801 50.4122 171.091 51.0815 160.337C44.6393 159.008 38.621 157.658 32.7536 154.549C29.5779 152.868 26.4963 150.536 25.2052 147.181C23.9142 143.826 25.125 139.333 28.4816 138.053C31.3543 136.958 34.5392 138.467 37.0668 140.221C43.2669 144.522 48.2197 150.592 51.2343 157.51C51.3138 155.795 51.3661 154.078 51.3912 152.362C51.4789 145.907 51.1676 139.419 50.1306 133.04C49.5629 129.553 48.6726 126.182 47.5715 122.877C40.5475 122.533 34.0279 122.206 27.3742 119.899C23.9794 118.722 20.5784 116.889 18.7909 113.77C17.0028 110.651 17.5136 106.025 20.6352 104.247C23.307 102.726 26.6847 103.731 29.4503 105.078C36.9291 108.719 43.2325 114.721 47.2674 121.999C46.2004 118.909 44.9636 115.871 43.6316 112.847C39.3998 103.242 34.2938 93.6359 30.848 83.6025C24.002 83.2748 17.6234 82.9209 11.1152 80.6738C7.71933 79.5007 4.31583 77.6727 2.5238 74.5561C0.732127 71.4396 1.23693 66.8128 4.35601 65.0312C7.02578 63.5059 10.4049 64.5065 13.1719 65.8498C20.0652 69.1952 25.9652 74.5431 30.0145 81.0484C28.1026 74.9092 26.8791 68.5997 26.9195 62.0235C26.9461 57.6811 27.5963 53.3672 28.6397 49.1468C22.8768 45.8278 17.5286 42.6408 12.8881 37.8015C10.4006 35.2071 8.20541 32.0259 8.03213 28.4351C7.85885 24.8442 10.4177 20.9593 14.0069 20.7988C17.0781 20.6615 19.6294 23.0951 21.4793 25.5538C25.947 31.4915 28.7244 38.6778 29.4703 46.0689C30.0549 44.0864 30.7121 42.126 31.4404 40.1917C34.7319 31.4529 39.5636 23.267 45.8478 16.3492C45.9995 16.179 46.1894 16.0473 46.4019 15.9648C49.8429 11.5555 53.3311 7.48917 57.9494 4.09607C60.844 1.96909 64.2819 0.209776 67.862 0.509329C71.4417 0.809232 74.9566 3.85927 74.647 7.44067C74.3822 10.5062 71.6381 12.7167 68.9607 14.2293C62.3143 17.9833 54.5949 19.7954 46.9725 19.4396C39.7738 27.7289 34.2021 38.1 31.5637 49.0249C35.8516 44.1097 39.9639 39.5729 45.5106 36.0185C48.5346 34.0806 52.0779 32.5434 55.6316 33.0708C59.1849 33.5978 62.4989 36.8656 61.9622 40.4198C61.5025 43.4622 58.6235 45.4938 55.856 46.8326C48.2835 50.4946 39.5608 51.7159 31.2693 50.3023C29.7756 57.1036 29.426 64.0937 30.5459 70.91C31.0989 74.2765 31.9243 77.5493 32.9343 80.7588C35.7721 74.9922 38.5618 69.6278 42.9467 64.8282C45.3695 62.1753 48.397 59.777 51.9658 59.3705C55.535 58.964 59.5774 61.2676 59.9737 64.8405C60.313 67.8992 58.0544 70.6042 55.7244 72.6114C49.495 77.9783 41.6033 81.377 33.43 82.248C37.698 95.0162 44.7539 106.829 49.4633 119.455C52.2252 113.861 54.983 108.651 59.2529 103.977C61.676 101.324 64.7032 98.9258 68.2724 98.5192C71.8412 98.1124 75.8836 100.416 76.2802 103.989C76.6196 107.047 74.361 109.753 72.0309 111.76C65.9065 117.036 58.1757 120.414 50.15 121.354C50.23 121.583 50.3194 121.809 50.3976 122.039C54.1742 133.073 54.6792 145.17 54.1416 156.784C57.3898 152.113 60.6886 147.789 65.1886 144.096C67.9656 141.816 71.3044 139.875 74.8952 139.983C78.4856 140.09 82.1587 142.948 82.0412 146.54C81.9404 149.616 79.3191 151.971 76.7266 153.624C69.9869 157.923 61.9582 160.155 53.9674 159.996C53.2839 171.003 51.6382 181.95 49.2367 192.721C53.3291 188.451 57.3731 184.539 62.5837 181.5C65.6871 179.691 69.2913 178.304 72.82 178.98C76.3484 179.656 79.5219 183.06 78.8365 186.588C78.2498 189.608 75.2883 191.517 72.4667 192.738C65.0218 195.961 56.6012 196.877 48.633 195.358C47.8146 198.842 46.9206 202.308 45.9516 205.753C44.4865 210.958 42.8541 216.13 41.0353 221.237C44.9989 217.127 48.9577 213.368 54.0003 210.419C57.1178 208.595 60.7369 207.195 64.2734 207.863Z" fill="#744646" fill-opacity="0.1"/>
</g>
</svg>
